<?xml version="1.0" standalone="no"?>
<!DOCTYPE svg PUBLIC "-//W3C//DTD SVG 20010904//EN"
 "http://www.w3.org/TR/2001/REC-SVG-20010904/DTD/svg10.dtd">
<svg version="1.0" xmlns="http://www.w3.org/2000/svg"
 width="720.000000pt" height="720.000000pt" viewBox="0 0 720.000000 720.000000"
 preserveAspectRatio="xMidYMid meet">
<metadata>
Created by potrace 1.14, written by Peter Selinger 2001-2017
</metadata>
<g transform="translate(0.000000,720.000000) scale(0.100000,-0.100000)"
fill="#000000" stroke="none">
<path d="M3298 7115 c-1 -1 -39 -6 -83 -9 -44 -3 -91 -8 -105 -10 -14 -2 -52
-7 -85 -10 -33 -4 -67 -9 -76 -12 -9 -3 -32 -7 -50 -9 -36 -5 -46 -7 -119 -24
-25 -5 -56 -12 -70 -15 -46 -10 -205 -54 -230 -64 -14 -5 -28 -10 -32 -11 -5
0 -10 -2 -13 -2 -3 -1 -8 -2 -12 -3 -18 -4 -89 -29 -98 -35 -5 -3 -14 -6 -20
-7 -19 -3 -171 -66 -251 -104 -45 -21 -91 -41 -103 -45 -11 -3 -21 -10 -21
-15 0 -5 -13 -11 -30 -15 -16 -4 -32 -10 -35 -15 -3 -4 -33 -22 -67 -40 -116
-61 -435 -277 -499 -339 -9 -9 -39 -34 -65 -56 -137 -114 -307 -285 -410 -414
-10 -13 -26 -31 -35 -40 -8 -9 -38 -45 -65 -81 -189 -249 -379 -584 -470 -825
-10 -27 -24 -61 -31 -74 -6 -14 -10 -28 -7 -33 3 -4 0 -8 -7 -8 -7 0 -10 -3
-6 -6 3 -4 -1 -23 -9 -43 -9 -20 -17 -43 -19 -51 -2 -8 -4 -15 -5 -15 -1 0 -3
-11 -6 -24 -2 -14 -9 -30 -15 -38 -6 -7 -9 -13 -6 -13 3 0 1 -15 -4 -32 -39
-129 -93 -377 -104 -482 -4 -31 -8 -67 -11 -79 -18 -96 -26 -605 -11 -730 4
-31 10 -83 13 -115 4 -31 8 -66 10 -77 2 -11 7 -40 10 -65 3 -25 8 -53 10 -62
3 -10 7 -28 9 -40 2 -13 6 -34 8 -48 3 -14 10 -45 17 -70 7 -25 14 -56 17 -70
15 -87 152 -491 174 -515 5 -5 9 -17 9 -27 0 -10 5 -18 10 -18 6 0 10 -7 10
-15 0 -16 105 -226 161 -325 36 -62 179 -282 188 -290 4 -3 24 -30 45 -60 22
-30 47 -64 57 -75 10 -11 44 -51 75 -90 86 -105 357 -372 445 -438 l35 -26 0
559 -1 558 -42 61 c-24 33 -43 64 -43 69 0 5 -6 15 -14 21 -17 15 -126 204
-126 220 0 6 -4 11 -10 11 -5 0 -10 4 -10 9 0 5 -16 45 -36 88 -45 97 -67 152
-108 273 -38 109 -88 306 -101 390 -2 19 -7 46 -9 60 -19 102 -30 248 -30 415
0 166 11 319 29 425 2 14 7 43 10 65 4 22 18 85 31 140 13 55 27 110 29 122 6
24 71 218 82 243 3 8 7 17 8 20 22 57 38 93 86 191 56 114 171 311 195 337 7
6 16 21 19 32 3 11 10 20 15 20 4 0 17 15 28 33 61 105 323 380 477 502 28 22
52 43 53 48 2 4 8 7 14 7 5 0 15 6 22 13 29 28 256 179 256 169 0 -3 8 2 18
10 63 54 499 240 613 262 8 1 34 8 59 15 53 15 76 21 112 26 15 2 44 8 65 13
21 6 45 10 53 10 14 1 28 3 110 18 132 24 525 23 690 -1 19 -2 55 -7 79 -10
25 -3 77 -12 115 -21 39 -8 84 -18 100 -20 16 -3 79 -21 140 -40 61 -19 118
-36 126 -38 8 -2 42 -15 75 -28 l60 -24 -1 -1280 c0 -1176 -3 -1409 -20 -1435
-3 -6 -7 -20 -9 -32 -4 -39 -46 -150 -81 -220 -72 -143 -183 -274 -310 -368
-87 -64 -237 -134 -349 -164 -141 -38 -359 -40 -495 -6 -127 32 -295 108 -355
161 -47 41 -45 58 -45 -423 l0 -454 68 -22 c113 -36 134 -42 217 -57 6 -1 12
-3 15 -4 3 -1 14 -3 25 -4 11 -2 40 -6 65 -9 25 -4 74 -9 109 -12 35 -3 67 -8
72 -10 4 -3 10 -1 14 4 3 7 15 7 29 1 13 -5 26 -7 27 -5 2 2 54 6 114 9 61 3
119 8 130 10 11 2 41 6 66 10 77 11 103 16 135 27 17 5 42 12 55 15 40 9 54
12 54 14 0 1 7 3 15 5 97 21 382 159 460 222 8 6 43 33 78 58 81 61 312 291
312 312 0 2 17 26 37 53 112 146 258 450 287 596 3 10 9 30 14 44 5 14 10 30
11 35 1 6 4 19 6 30 3 11 7 32 10 48 3 15 7 37 9 50 11 54 27 178 32 247 10
139 10 3004 -1 3023 -5 9 -16 17 -24 17 -8 0 -22 6 -30 14 -14 11 -96 57 -201
112 -47 24 -267 124 -274 124 -3 0 -17 5 -33 12 -15 6 -30 12 -33 13 -3 1 -12
5 -20 8 -8 3 -46 16 -85 28 -38 12 -74 24 -80 28 -5 3 -16 7 -22 8 -21 5 -37
10 -53 16 -20 8 -255 64 -300 72 -19 3 -46 7 -60 10 -14 2 -41 6 -60 10 -44 8
-82 13 -145 20 -27 3 -70 8 -95 11 -49 6 -536 15 -542 9z"/>
<path d="M5732 5783 l0 -558 79 -117 c158 -237 293 -537 365 -813 105 -399
117 -857 34 -1245 -5 -25 -12 -56 -15 -70 -30 -156 -129 -431 -215 -600 -61
-121 -162 -289 -211 -351 -16 -20 -29 -41 -29 -47 0 -6 -4 -12 -8 -14 -4 -1
-42 -46 -84 -98 -135 -168 -292 -319 -476 -457 -53 -40 -102 -77 -109 -83 -7
-5 -17 -10 -23 -10 -5 0 -10 -4 -10 -10 0 -5 -4 -10 -9 -10 -5 0 -33 -16 -63
-36 -79 -53 -358 -187 -483 -233 -110 -40 -299 -95 -365 -106 -19 -3 -42 -8
-50 -10 -8 -2 -31 -7 -50 -10 -19 -3 -46 -7 -60 -10 -23 -4 -47 -7 -185 -22
-164 -17 -518 -3 -685 27 -30 6 -68 13 -85 16 -64 11 -70 12 -85 18 -8 3 -26
7 -40 10 -45 8 -199 56 -288 89 l-87 32 0 1300 c1 715 4 1320 8 1345 4 25 9
55 12 68 3 12 7 32 10 44 22 100 97 260 165 352 148 202 349 335 600 398 130
33 348 30 485 -6 110 -29 231 -83 324 -145 l61 -40 0 87 c1 48 1 94 1 102 1
32 0 167 -2 210 -1 25 -1 51 -1 58 1 6 1 75 1 152 0 77 0 148 0 158 0 9 0 37
0 62 0 25 -1 52 -1 61 1 34 -312 113 -488 124 -25 1 -47 4 -50 5 -20 7 -327
-6 -360 -15 -8 -2 -33 -7 -55 -10 -22 -2 -51 -7 -65 -10 -14 -3 -36 -8 -50
-11 -218 -41 -544 -200 -723 -352 -94 -80 -219 -214 -305 -327 -45 -59 -154
-245 -144 -245 4 0 2 -4 -3 -8 -28 -20 -127 -274 -156 -402 -12 -49 -13 -53
-22 -90 -11 -39 -26 -131 -32 -186 -2 -21 -7 -68 -11 -104 -7 -63 -13 -3000
-6 -3030 6 -28 378 -220 552 -285 25 -9 54 -20 65 -25 11 -4 36 -13 55 -20 19
-7 44 -16 55 -20 18 -8 149 -47 185 -56 8 -2 33 -8 55 -14 22 -6 49 -13 60
-15 11 -3 31 -7 45 -11 14 -3 34 -7 45 -9 11 -2 58 -11 105 -19 47 -9 105 -18
130 -21 25 -3 54 -8 65 -10 133 -26 674 -27 845 0 14 2 48 6 75 10 78 10 303
55 382 76 40 11 80 22 90 24 10 2 29 8 43 13 14 5 27 9 30 9 14 -1 228 77 345
126 67 28 398 195 404 205 4 4 20 14 36 22 17 8 32 17 35 20 10 10 69 50 75
50 9 0 236 165 281 205 6 6 35 30 65 55 128 107 278 258 391 391 62 72 79 93
101 122 12 16 31 41 43 55 11 15 40 56 65 92 24 36 46 67 49 70 13 12 127 202
167 279 12 24 26 48 31 55 7 10 46 93 105 226 30 66 107 273 112 297 2 10 4
19 5 21 2 1 3 5 5 10 1 4 5 14 8 22 14 34 73 271 92 370 3 14 7 35 9 47 5 21
14 83 21 138 2 17 6 46 9 65 3 19 8 65 10 101 2 37 6 71 8 75 6 11 1 468 -6
549 -2 33 -7 76 -10 95 -2 19 -7 58 -11 85 -8 66 -12 89 -25 155 -6 30 -13 66
-16 80 -2 14 -7 36 -10 50 -4 14 -8 34 -10 45 -1 11 -19 76 -39 145 -20 69
-39 135 -42 148 -3 12 -9 25 -14 28 -5 3 -9 12 -9 21 0 48 -179 445 -260 580
-22 36 -40 67 -40 70 0 2 -18 31 -40 64 -22 33 -40 64 -40 69 0 5 -4 10 -8 12
-4 2 -28 32 -52 68 -40 57 -67 94 -145 192 -123 155 -381 413 -516 516 -15 12
-17 -31 -17 -545z"/>
</g>
</svg>
